<svg xmlns="http://www.w3.org/2000/svg" viewBox="0 0 91.63 80"><defs><style>.cls-1{fill:#3d3d3d;}</style></defs><title>alerts</title><g id="Layer_2" data-name="Layer 2"><g id="Layer_1-2" data-name="Layer 1"><path class="cls-1" d="M15.55,42,13.1,46.18c2.48-.46,4.7-.91,6.93-1.25a8.8,8.8,0,0,1,2.51,0c2.59.36,5.16.78,7.74,1.16.33,0,.66,0,.95.07l-.92,6.45c-1.41-.11-2.93-.18-4.45-.35a13.68,13.68,0,0,1-2.93-.56c-2.39-.82-4.62.15-6.88.54-5.15.88-10.28,1.9-15.41,2.86l-.49,0c.18-.35.31-.62.46-.88,2-3.4,4.05-6.8,6.11-10.18a1.08,1.08,0,0,0-.14-1.57C2,37.56-.4,31.69.06,24.87.57,17.22,4.31,11.25,10.3,6.65A32.34,32.34,0,0,1,28,.1,33.17,33.17,0,0,1,51.55,7a24.73,24.73,0,0,1,9.64,15.84c.09.57.11,1.15.16,1.77L55,25.4c-.2-1-.35-2.17-.64-3.25-1.48-5.43-5-9.26-9.73-12C35.07,4.5,21.92,5.45,13.53,12.39c-4.53,3.75-7.17,8.49-7,14.52a17,17,0,0,0,5.17,11.6C12.92,39.76,14.29,40.87,15.55,42Z"/><path class="cls-1" d="M86.14,67.32C90.5,62,92.49,56,91.29,49.18,90,41.93,85.84,36.65,79.74,32.83a31.42,31.42,0,0,0-20.35-4.57,29.43,29.43,0,0,0-18.85,8.79c-5.35,5.54-7.7,12.16-6.24,19.84,1.31,6.89,5.33,12,11.15,15.7,7.92,5,16.51,6.09,25.57,4a3.57,3.57,0,0,1,1.41-.11c4.16.76,8.31,1.57,12.46,2.35L91.57,80l-6.7-11.21C85.34,68.25,85.75,67.79,86.14,67.32ZM47.9,59.05a5,5,0,1,1,5-5A4.95,4.95,0,0,1,47.9,59.05Zm14.89,0a5,5,0,1,1,5-5A5,5,0,0,1,62.79,59.05Zm14.82,0a5,5,0,1,1,5-4.95A5,5,0,0,1,77.61,59.05Z"/><path class="cls-1" d="M30.84,32.61a2.49,2.49,0,1,1-2.56,2.47A2.48,2.48,0,0,1,30.84,32.61Zm2.33-15.88-.59,14.35H29.17l-.59-14.35Z"/></g></g></svg>