<svg xmlns="http://www.w3.org/2000/svg" viewBox="0 0 83.99 74.87"><defs><style>.cls-1{fill:#3d3d3d;}</style></defs><title>dashboard</title><g id="Layer_2" data-name="Layer 2"><g id="Layer_1-2" data-name="Layer 1"><path class="cls-1" d="M41.5,39H30.71V28.21H41.5Zm-9.35-1.44h7.91V29.65H32.15Z"/><rect class="cls-1" x="45.79" y="28.89" width="20.62" height="2"/><rect class="cls-1" x="45.79" y="35.56" width="20.62" height="2"/><rect class="cls-1" x="29.86" y="42.24" width="36.54" height="2"/><rect class="cls-1" x="29.86" y="48.91" width="36.54" height="2"/><rect class="cls-1" x="29.86" y="55.58" width="36.54" height="2"/><path class="cls-1" d="M78.07,0H5.92A5.92,5.92,0,0,0,0,5.92V69.77a5.1,5.1,0,0,0,3.42,4.8,3.31,3.31,0,0,0,1.37.3H80.14a2.4,2.4,0,0,0,.28,0,2.85,2.85,0,0,0,.29,0A3.28,3.28,0,0,0,84,71.59V5.92A5.92,5.92,0,0,0,78.07,0ZM8,11.06A1.64,1.64,0,1,1,9.65,9.42,1.64,1.64,0,0,1,8,11.06Zm4.92,0a1.64,1.64,0,1,1,1.64-1.64A1.63,1.63,0,0,1,12.93,11.06Zm4.92,0a1.64,1.64,0,1,1,1.64-1.64A1.63,1.63,0,0,1,17.85,11.06ZM77.43,68.31H19.69V19.69H77.43Z"/></g></g></svg>