<svg xmlns="http://www.w3.org/2000/svg" viewBox="0 0 32.38 34.69"><defs><style>.cls-1{fill:#141414;}</style></defs><title>marketing_1</title><g id="Layer_2" data-name="Layer 2"><g id="Layer_1-2" data-name="Layer 1"><path class="cls-1" d="M30.24,1c-4.84,2.26-13.48,5.86-16,5.86h-11l-.36,0C1.79,7.16,0,8.12,0,10.07v8.47a3.35,3.35,0,0,0,2.7,3V34.69H9.49l.26-.1a6.06,6.06,0,0,0,4-5.4V21.5H14c4.15.66,16.17,6.08,16.29,6.13l2.12,1V0ZM3,18.23l0-8.09a1.1,1.1,0,0,1,.46-.28h9.68v8.67c-.39,0-.79.06-1.07.09l-.31,0H4.29v0H3.17A1,1,0,0,1,3,18.23Zm2.71,2.42h5v4.89h-5Zm3.17,11H5.71V27.54h5v1.65A3,3,0,0,1,8.88,31.69ZM29.38,24c-3.53-1.53-10.56-4.48-14.26-5.3V9.78c3.61-.49,10.64-3.48,14.26-5.09Z"/></g></g></svg>