<svg xmlns="http://www.w3.org/2000/svg" viewBox="0 0 1921.4 878"><defs><style>.cls-1{fill:#5c5d63;}.cls-2{fill:#ffe527;}.cls-3{fill:#ff7f29;}.cls-4{fill:#f3f3f4;}.cls-5{fill:#b8b8ba;}.cls-6{fill:#a4a6a6;}.cls-7{fill:#7c7b7e;}.cls-8{fill:#83969c;}</style></defs><title>cart</title><g id="Layer_2" data-name="Layer 2"><g id="Layer_1-2" data-name="Layer 1"><polygon class="cls-1" points="1921.4 415 0.4 878 0.4 463 1921.4 0 1921.4 415"/><polygon class="cls-2" points="1616.85 233.42 1613.11 273.1 1736.4 240.69 1735.86 196.36 1616.85 233.42"/><polygon class="cls-2" points="705.16 493.26 529.1 542.36 528 489.7 706.99 445.05 705.16 493.26"/><polygon class="cls-2" points="177.16 626.26 1.1 675.36 0 622.7 178.99 578.05 177.16 626.26"/><path class="cls-2" d="M1035.91,261s-64.56-41.79-104.71-39.61c-15.29.84-29,10.38-29,10.38s45.14,3.11,8.25,20.39c-38,17.78-52.76,1.48-52.76,1.48s22.55,40.41,49,33.11c16.6-4.59-73.59,22-73.59,22s60.78-.32,44.3,23.37c-20.43,29.37-44.84,18-44.84,18s29.26,16.5,69.1,3.32c42.91-14.2-29.7,55.62-29.7,55.62s74-2.42,105.26-40c5-6,28.14-10,43,13.49,4.28,6.78,22.07-2.71,22.07-2.71Z"/><path class="cls-3" d="M1013.21,327s-26.67,14.7-42.47,12.71c-6-.76-11.15-4.91-11.15-4.91s17.92,0,3.83-7.82c-14.5-8.09-20.79-2.06-20.79-2.06s10-15.33,20.26-11.71c6.43,2.28-28.44-10.75-28.44-10.75s24,1.83,18.15-8c-7.25-12.18-17.21-8.37-17.21-8.37s12-5.7,27.39.62c16.55,6.81-10.18-22.8-10.18-22.8s29.17,3,40.45,18.74c1.81,2.5,10.84,4.73,17.35-4.13,1.88-2.56,8.64,1.69,8.64,1.69Z"/><polygon class="cls-4" points="1055.38 221.85 1018.75 224.03 998.76 338.61 1058.89 392.13 1114 370.55 1055.38 221.85"/><path class="cls-4" d="M1032,270.87c5.5-26.71,11.08-53.41,16.47-80.15,1.36-6.76,3.34-13.43,3.56-20.4a106.54,106.54,0,0,0,4.82-23.5c.95-3.49,3.42-5,6.75-6.12q96.67-32.55,193.23-65.42c7.36-2.52,12.64-1.9,18.5,3.75,4.7,4.53,6.75,8.49,4.57,14.64-.71,2-.7,4.25-1,6.39-6.1,29.68-12.15,59.36-18.34,89-3.84,18.44-7.9,36.83-11.86,55.23-3,3.87-7,6.14-11.68,7.66-13.11,4.26-26.15,8.77-39.21,13.22-2.41.83-5.08,1.21-6.8,3.43-3.47.45-6.9,1.05-9.91,3-8.42,2.12-17.09,3.56-24.28,9-4.09-.28-8,.05-11,3.29a81.38,81.38,0,0,0-26,8.67c-3.34.95-7.15.36-10,3-14.41,3.45-28.06,9.24-42.17,13.61-5.31,1.65-10.41,3.92-15.61,5.91-17,3.4-26.65-4.85-24.51-21C1029.5,286.45,1031.35,278.78,1032,270.87ZM1225.52,184c4-9.84,4.91-20.39,6.85-30.71.24-1.35.48-2.71.73-4.07,2.22-10.29,4.45-20.59,7-32.14l-40.5,13.69q-52.58,17.79-105.16,35.6c-1.62.55-3.19,1.29-4.78,1.95-2.73.44-2.34,2.82-2.69,4.57q-9.89,49-19.68,98.1c-.12.63-.4,1.23-.94,2.85,6.89-2.28,12.36-4.07,17.81-5.91q38.45-13,76.89-26c2-.68,3.93-1.67,5.9-2.52l.36-.31-.31-.36c1.6,1.4,2.82,0,4.17-.55,14.86-4.88,29.72-9.79,44.6-14.62,3.69-1.2,4.3-3.7,3.5-7l.4-2.86c3.53-7.3,3.88-15.33,5.31-23.11.25-1.49.49-3,.74-4.48.27-.78.62-1.56-.34-2.14Z"/><path class="cls-5" d="M1145.8,283.88a81.38,81.38,0,0,0-26,8.67c3.73,2,8.06,2.66,11.39,5.73,8.35,7.71,16.94,15.16,25.44,22.72,9.88,8.65,19.79,17.29,29.63,26,1.36,1.2,3.75,2.26,2.76,4.55-.81,1.89-3.09,2.14-5,2.34a18.76,18.76,0,0,1-15-4.57c-5.32-4.71-10.58-9.49-15.86-14.25q-20.22-17.64-40.44-35.27a8.74,8.74,0,0,1-2.86-4.21c-14.41,3.45-28.06,9.24-42.17,13.61-5.31,1.65-10.41,3.92-15.61,5.91a232.31,232.31,0,0,0,27.16,24c17.62,13.65,34,28.66,50.72,43.36,5,4.36,9.51,6.36,15.62,3.4,12.2-5,24.44-9.9,37.53-12.21l0,0c1.37-2.35,4-2.5,6.14-3.25,41.58-14.28,83.21-28.43,124.76-42.81,6.45-2.23,13.38-3.41,19.07-7.61-21-16.66-39-36.61-59.53-53.82-8.44-7.08-16.53-14.57-24.77-21.87-3,3.87-7,6.14-11.68,7.66-13.11,4.26-26.15,8.77-39.21,13.22-2.41.83-5.08,1.21-6.8,3.43,4.12,1.8,8.62,2.71,12.16,5.88,18.25,16.33,36.59,32.55,54.86,48.86,1.19,1.06,3.29,2,2.42,4.09-.74,1.78-2.74,2-4.43,2.25-6.42.87-12-1.1-16.76-5.35q-27.27-24.12-54.54-48.23a32.65,32.65,0,0,1-3.62-4.51c-8.42,2.12-17.09,3.56-24.28,9,5,2.43,10.21,4.24,14.36,8.41,5.48,5.51,11.61,10.39,17.45,15.54,11.2,9.88,22.29,19.9,33.64,29.59,4.25,3.62,2.91,5.15-1.36,6.76-7,2.66-12.41-1.06-17-5.11C1184.36,318.68,1165.14,301.22,1145.8,283.88Z"/><path class="cls-6" d="M1248.72,244.31c8.24,7.3,16.33,14.79,24.77,21.87C1294,283.39,1312,303.34,1333,320c.61-2.27,1.31-4.53,1.82-6.83q5.51-24.82,11-49.67,3.1-14,6.22-27.91c1.49-9.92,2.42-20,7-29.15-1-6.64,1.27-12.81,3.08-18.95,2.51-8.52,1-14.63-6.36-20.82-23.66-19.85-46.56-40.6-69.78-61-2.27-2-4.72-3.77-7.09-5.65-6.1,29.68-12.15,59.36-18.34,89C1256.74,207.52,1252.68,225.91,1248.72,244.31Z"/><path class="cls-1" d="M1345.8,263.5q-5.47,24.84-11,49.67c-.51,2.3-1.21,4.56-1.82,6.83-5.69,4.2-12.62,5.38-19.07,7.61-41.55,14.38-83.18,28.53-124.76,42.81-2.18.75-4.77.9-6.14,3.25a9,9,0,0,0,1.8.69c15.1,2.17,15.07,2.16,11.71,16.56-.36,1.57-.64,3.18-2.44,3.34-4.93.43-10.6,1.43-14.26-2.06-4-3.8-2.57-9.24-.24-13.89a32,32,0,0,1,3.47-4.66c-13.09,2.31-25.33,7.21-37.53,12.21,11.87,10.3,26.31,14.4,41.31,17.15a151.79,151.79,0,0,0,30.38-2.69,4.46,4.46,0,0,1,2.88-2.31c9.65-3.55,18.93-8.22,29.32-9.49,3.85-1.42,7.68-2.89,11.55-4.24,8.7-3,8.84-2.92,11.44,6,4.56-1.26,9.06-3.31,13.67-3.6,8.87-.57,16.07-9.49,25.82-5-3.1-2.64-6.59-5-7.92-9.09-.47-1.47-1.29-3.21,1.12-3.95l32.77-10.06c6.11-1.79,11.48-6.49,18.5-4.66a23.42,23.42,0,0,1,14-5.68c5.08-6.06,7.47-21.53,4.15-26.85-3.65,2.75-4,7-4.95,10.94-.5,2.11.11,6-2.9,5.45-2.73-.52-1-4.09-.82-6.29s.75-4.26,1-6.4c.12-1,.25-2.77-.23-3-6.93-3.64-3.33-9-2-13.61a67.7,67.7,0,0,0,2.94-21.46c-.32-8.93-.55-18.89,8.76-25.69a14.17,14.17,0,0,0,5.08-14.53l-2.49,4.63c-1.29,8-6.74,11.53-14,13A41.1,41.1,0,0,1,1345.8,263.5Z"/><path class="cls-1" d="M1027.55,294.11c2-7.66,3.8-15.33,4.49-23.24-3.08-.52-5.61-2.24-8.19-3.81-13.52-8.19-27.32-15.95-40.4-24.78-8-5.39-15.35-8-24.52-3.53-4.78,2.35-6.67.41-5.59-5,6-29.94,11.79-59.91,17.68-89.86.37-1.88.38-3.94,1.91-5.41,4.84-4.66,20.15-5.88,26.2-2.14,11,6.83,22.23,13.46,33.11,20.55,6.68,4.35,14.2,7.49,19.83,13.4a106.54,106.54,0,0,0,4.82-23.5c-16.8-8.56-32.55-18.92-48.34-29.09-9.14-5.88-17.34-8.33-27.66-3.7-6.66,3-14,4.47-21.11,6.41-3.8,1-5.71,3.16-6.45,7.08-8,42.1-16.16,84.17-24.19,126.26-1.74,9.15,2.63,13.08,11.8,10.6,7.92-2.15,16.1-3.37,23.78-6.44a5.62,5.62,0,0,1,5.48.58C989.27,270.46,1008.42,282.27,1027.55,294.11Z"/><path class="cls-7" d="M1311.93,381.74c-9.75-4.51-17,4.41-25.82,5-4.61.29-9.11,2.34-13.67,3.6l.08,1.48,0,2.47c-1.68,3.75-.7,8.26-3.29,11.77-.68,5.39-4.19,8.61-8.57,11.16,1.1,2.82,2.75,1.94,4.61.79,6.49-4,13.31-6.82,21.16-7.39,6.21-.46,10.91-5.53,17.35-6.6,9.87-1.63,19.83-3.13,28.68-9a37.52,37.52,0,0,0,8.38-7.66A47,47,0,0,1,1311.93,381.74Z"/><path class="cls-7" d="M1381.46,246.83a14.17,14.17,0,0,1-5.08,14.53c-9.31,6.8-9.08,16.76-8.76,25.69a67.7,67.7,0,0,1-2.94,21.46c-1.3,4.57-4.9,10,2,13.61.48.26.35,2,.23,3-.26,2.14-.89,4.25-1,6.4s-1.91,5.77.82,6.29c3,.57,2.4-3.34,2.9-5.45.94-4,1.3-8.19,4.95-10.94,2.86-8.56,5.27-17.15,6-26.3,1.07-13.92,3-27.78,4.58-41.65.28-2.39,1.6-4.41,2.86-6.46,4.16-6.73,3.45-14-1.78-20.19a9.1,9.1,0,0,0-6.83,2.33C1382.28,234.81,1381.29,240.89,1381.46,246.83Z"/><path class="cls-4" d="M1260.63,417.2c4.38-2.55,7.89-5.77,8.57-11.16-3.21-9.64-12-13-19.75-17.52-10.39,1.27-19.67,5.94-29.32,9.49a4.46,4.46,0,0,0-2.88,2.31c1.64,7.78,7.41,11.87,13.79,15.43l6.55,2.33,1.08.92h-.22a1.71,1.71,0,0,1,2.48.34C1247.49,418.6,1254.22,419.4,1260.63,417.2Z"/><path class="cls-4" d="M1311.93,381.74a47,47,0,0,0,28.88,5.62l-.23.23L1343,387c5.69-2.8,11-6,11.73-13.16-3.29-7.63-9.69-11.8-16.83-15.15l-32.77,10.06c-2.41.74-1.59,2.48-1.12,3.95C1305.34,376.78,1308.83,379.1,1311.93,381.74Z"/><path class="cls-1" d="M1379.4,229.18a9.1,9.1,0,0,1,6.83-2.33c3.9-3.11,9.17-19.72,7.68-24.34-.59-1.8-2.06-2.7-3.69-3.42-3,4.53-1.88,10.09-3.76,14.88-.55,1.41-1.27,3.15-3.06,2.71-2.08-.51-1.26-2.43-1-3.81.87-4.64,1.85-9.27,2.79-13.9-9.17.87-17.14,5.94-26.12,7.47-4.63,9.17-5.56,19.23-7,29.15,2.73-1,5.45-2.19,8.33-.46C1366.46,232.38,1372.49,229.36,1379.4,229.18Z"/><path class="cls-7" d="M1231,415.75c-6.38-3.56-12.15-7.65-13.79-15.43a151.79,151.79,0,0,1-30.38,2.69c-4.91,7.18-3.2,15.07-.76,22.08,1.87,5.37,8.32,4.37,13.17,4s9-2.87,13-5.38C1218.13,420.05,1224.21,417,1231,415.75Z"/><path class="cls-5" d="M1337.9,358.64c7.14,3.35,13.54,7.52,16.83,15.15l1.88-2.4c.29-5.81,2-11.63-.21-17.41C1349.38,352.15,1344,356.85,1337.9,358.64Z"/><path class="cls-7" d="M1356.4,354c2.24,5.78.5,11.6.21,17.41,6.11-6.8,13.08-13.09,13.84-23.09A23.42,23.42,0,0,0,1356.4,354Z"/><path class="cls-7" d="M1385.19,199c-.94,4.63-1.92,9.26-2.79,13.9-.26,1.38-1.08,3.3,1,3.81,1.79.44,2.51-1.3,3.06-2.71,1.88-4.79.8-10.35,3.76-14.88A7.49,7.49,0,0,0,1385.19,199Z"/><path class="cls-7" d="M1238.67,419l-1.08-.92Z"/><path class="cls-7" d="M1240.93,419.34a1.71,1.71,0,0,0-2.48-.34Z"/><path class="cls-7" d="M1343,387l-2.42.64Z"/><path class="cls-8" d="M1171.12,238.12c14.86-4.88,29.72-9.79,44.6-14.62,3.69-1.2,4.3-3.7,3.5-7-7.47,3.83-13.49,1-19-4.17q-25.61-22.5-51.2-45A19.61,19.61,0,0,1,1146,164c-.4-.55-.16-1.56-.2-2.36.8,0,1.78-.34,2.39,0a20.59,20.59,0,0,1,3.62,2.71q25.56,22.54,51.1,45.11c4.93,4,11.13,2.95,16.76,4.15,3.53-7.3,3.88-15.33,5.31-23.11q-20-17.55-40-35.11a29.41,29.41,0,0,1-3.17-3.24c-.86-1-1.35-2.34-.38-3.53s2.37-.67,3.43.1c1.39,1,2.7,2.16,4,3.29l36.71,32c4-9.84,4.91-20.39,6.85-30.71-4.45-3.71-8.95-7.38-13.34-11.16-1.23-1.06-3.29-2.47-1.94-4.18s3.12.09,4.34,1.11c3.94,3.32,7.78,6.77,11.67,10.16,2.22-10.29,4.45-20.59,7-32.14l-40.5,13.69q-52.58,17.79-105.16,35.6c-1.62.55-3.19,1.29-4.78,1.95,1.28,3.4,4,5.57,6.63,7.85q32,28.11,63.94,56.22c2.42,2.14,5.1,4.06,6.72,7l.36-.31-.31-.36C1168.22,237.57,1169.65,237.7,1171.12,238.12Z"/><path class="cls-7" d="M1166.9,239.34c-1.62-2.92-4.3-4.84-6.72-7q-32-28.12-63.94-56.22c-2.6-2.28-5.35-4.45-6.63-7.85-2.73.44-2.34,2.82-2.69,4.57q-9.89,49-19.68,98.1c-.12.63-.4,1.23-.94,2.85,6.89-2.28,12.36-4.07,17.81-5.91q38.45-13,76.89-26C1163,241.18,1164.93,240.19,1166.9,239.34Z"/><path class="cls-1" d="M1145.8,283.88c19.34,17.34,38.56,34.8,58.1,51.9,4.62,4.05,10,7.77,17,5.11,4.27-1.61,5.61-3.14,1.36-6.76-11.35-9.69-22.44-19.71-33.64-29.59-5.84-5.15-12-10-17.45-15.54-4.15-4.17-9.36-6-14.36-8.41C1152.75,280.31,1148.84,280.64,1145.8,283.88Z"/><path class="cls-1" d="M1181.12,271.61a32.65,32.65,0,0,0,3.62,4.51q27.21,24.17,54.54,48.23c4.81,4.25,10.34,6.22,16.76,5.35,1.69-.24,3.69-.47,4.43-2.25.87-2.11-1.23-3-2.42-4.09-18.27-16.31-36.61-32.53-54.86-48.86-3.54-3.17-8-4.08-12.16-5.88C1187.56,269.07,1184.13,269.67,1181.12,271.61Z"/><path class="cls-7" d="M1156.63,321c-8.5-7.56-17.09-15-25.44-22.72-3.33-3.07-7.66-3.71-11.39-5.73-3.34.95-7.15.36-10,3a8.74,8.74,0,0,0,2.86,4.21q20.23,17.63,40.44,35.27Q1154.88,328,1156.63,321Z"/><path class="cls-6" d="M1225.52,184l-36.71-32c-1.3-1.13-2.61-2.28-4-3.29-1.06-.77-2.35-1.43-3.43-.1s-.48,2.5.38,3.53a29.41,29.41,0,0,0,3.17,3.24q20,17.58,40,35.11c.25-1.49.49-3,.74-4.48-.11-.71-.23-1.43-.34-2.14Z"/><path class="cls-5" d="M1219.62,213.61c-5.63-1.2-11.83-.11-16.76-4.15l-2.61,2.84c5.48,5.19,11.5,8,19,4.17C1219.35,215.52,1219.49,214.56,1219.62,213.61Z"/><path class="cls-6" d="M1233.1,149.19c-3.89-3.39-7.73-6.84-11.67-10.16-1.22-1-2.88-2.94-4.34-1.11s.71,3.12,1.94,4.18c4.39,3.78,8.89,7.45,13.34,11.16C1232.61,151.91,1232.85,150.55,1233.1,149.19Z"/><path class="cls-7" d="M1171.12,238.12c-1.47-.42-2.9-.55-4.17.55C1168.55,240.07,1169.77,238.62,1171.12,238.12Z"/><path class="cls-8" d="M1225.33,183.88c.11.71.23,1.43.34,2.14C1225.94,185.24,1226.29,184.46,1225.33,183.88Z"/><path class="cls-1" d="M1156.63,321q-1.76,7-3.49,14.06c5.28,4.76,10.54,9.54,15.86,14.25a18.76,18.76,0,0,0,15,4.57c1.94-.2,4.22-.45,5-2.34,1-2.29-1.4-3.35-2.76-4.55C1176.42,338.29,1166.51,329.65,1156.63,321Z"/><path class="cls-4" d="M1379,251.46c-1.29,8-6.74,11.53-14,13a41.1,41.1,0,0,1-19.12-1q3.1-14,6.22-27.91c2.73-1,5.45-2.19,8.33-.46C1367.88,239.05,1375,243.45,1379,251.46Zm-24-5.53a.67.67,0,0,0-.48-1.19c-.49,0-1,.56-1.43,1-.1.1.15.56.26,1A5,5,0,0,0,1355,245.93Z"/><path class="cls-7" d="M1183.09,373.65a32,32,0,0,0-3.47,4.66c-2.33,4.65-3.73,10.09.24,13.89,3.66,3.49,9.33,2.49,14.26,2.06,1.8-.16,2.08-1.77,2.44-3.34,3.36-14.4,3.39-14.39-11.71-16.56a9,9,0,0,1-1.8-.69Z"/><path class="cls-5" d="M1249.45,388.52c7.72,4.56,16.54,7.88,19.75,17.52,2.59-3.51,1.61-8,3.29-11.78l0-2.46-.08-1.48c-2.6-9-2.74-9.06-11.44-6C1257.13,385.63,1253.3,387.1,1249.45,388.52Z"/><path class="cls-5" d="M1360.35,235.13c7.53,3.92,14.66,8.32,18.62,16.33l2.49-4.63c-.17-5.94.82-12-2.06-17.65C1372.49,229.36,1366.46,232.38,1360.35,235.13Z"/><path class="cls-1" d="M1272.52,391.8l0,2.46Z"/><path class="cls-6" d="M1200.25,212.3l2.61-2.84q-25.54-22.56-51.1-45.11a20.59,20.59,0,0,0-3.62-2.71c-.61-.33-1.59,0-2.39,0,0,.8-.2,1.81.2,2.36a19.61,19.61,0,0,0,3.1,3.28Q1174.64,189.81,1200.25,212.3Z"/><path class="cls-6" d="M1353.37,246.65a5,5,0,0,0,1.65-.72.67.67,0,0,0-.48-1.19c-.49,0-1,.56-1.43,1C1353,245.8,1353.26,246.26,1353.37,246.65Z"/><polygon class="cls-5" points="1056.48 319.6 1116.82 370.37 1058.79 392.2 998.7 339.38 1056.48 319.6"/></g></g></svg>