<svg xmlns="http://www.w3.org/2000/svg" viewBox="0 0 221.96 37.16"><defs><style>.cls-1{fill:#fff;}</style></defs><title>growcart-logo-inverse</title><g id="Layer_2" data-name="Layer 2"><g id="Layer_1-2" data-name="Layer 1"><path class="cls-1" d="M82.5,32.75c3.75,0,4.77-2.58,4.56-5.87-.78,1.52-2.9,2.4-5,2.4a8.28,8.28,0,0,1-8.23-8.55,8.32,8.32,0,0,1,8.23-8.66c2,0,4.14.89,5,2.41V12.43h4.77v14.2c0,7.11-3.46,10.53-9.33,10.53A8.8,8.8,0,0,1,74.37,32l4-1.94A4.72,4.72,0,0,0,82.5,32.75Zm.46-16a4,4,0,1,0,0,7.91,4,4,0,0,0,4-4A3.82,3.82,0,0,0,83,16.74Z"/><path class="cls-1" d="M101.26,28.93H96.35V12.43h4.91v4c.85-3.08,3-4.35,4.67-4.35a6,6,0,0,1,2.82.6l-.88,4.42a5.61,5.61,0,0,0-2.51-.49c-2.83,0-4.1,2.22-4.1,6.57Z"/><path class="cls-1" d="M110,20.62a8.57,8.57,0,0,1,17.14,0,8.57,8.57,0,1,1-17.14,0Zm12.3,0a3.73,3.73,0,1,0-7.46,0,3.73,3.73,0,1,0,7.46,0Z"/><path class="cls-1" d="M149,28.93h-4.1l-3.25-10.5-3.11,10.5h-4.1l-6-16.5h5.23l2.93,9.82,2.9-9.82h4.2l2.9,9.82,2.93-9.82h5.23Z"/><path class="cls-1" d="M165.14,12.07a8.68,8.68,0,0,1,7.18,3.5l-4,2.86a3.74,3.74,0,0,0-3.18-1.66,3.94,3.94,0,0,0-4.1,3.85,4,4,0,0,0,4.1,4,3.74,3.74,0,0,0,3.18-1.66l4,2.83a9,9,0,0,1-16.15-5.13C156.17,15.43,160.41,12.07,165.14,12.07Z"/><path class="cls-1" d="M187.72,27.06c-1.06,1.59-3.53,2.19-4.8,2.19a8.42,8.42,0,0,1-8.41-8.59,8.42,8.42,0,0,1,8.41-8.59c1.06,0,3.53.36,4.8,2.19V12.43h4.88v16.5h-4.88Zm-4-2.48a3.92,3.92,0,1,0,0-7.84,4,4,0,0,0-4.14,3.92A4,4,0,0,0,183.73,24.58Z"/><path class="cls-1" d="M202,28.93h-4.91V12.43H202v4c.85-3.08,3-4.35,4.66-4.35a6.08,6.08,0,0,1,2.83.6l-.88,4.42a5.61,5.61,0,0,0-2.51-.49c-2.83,0-4.1,2.22-4.1,6.57Z"/><path class="cls-1" d="M222,12.43v3.88h-3.47V28.93h-4.87V16.31h-3V12.43h3V6.1h4.87v6.33Z"/><path class="cls-1" d="M10.86,26a5.56,5.56,0,0,1-5.53-3.47C4.54,20.76,2.18,13.17.16,7.38A2.48,2.48,0,0,1,2.38,4l32.23,0L32.68,9.85H7c.55,1.46,2.94,8.88,3.44,10.23h18.9L27.41,26ZM41.63,0a4.45,4.45,0,0,0-3.79,2.14,6.8,6.8,0,0,0-.62,1.19L36.81,4.6h0c-.45,1.71-2.89,9.14-5,15.46h-.06L29.81,26h0c-.72,2.15-1.47,4.32-1.47,4.32l-20.57.09s2,6.06,2,6.16l17.29,0c2.75,0,6.34-1.07,7.84-6.17.72-2.45,3.17-9.59,5.14-15.33,1.5-4.37,3-8.86,3-8.94l6.35,0S51.34,1.94,51.91,0Z"/></g></g></svg>