<svg xmlns="http://www.w3.org/2000/svg" xmlns:xlink="http://www.w3.org/1999/xlink" viewBox="0 0 230.96 37.07"><defs><style>.cls-1{fill:url(#linear-gradient);}.cls-2{fill:#222;}</style><linearGradient id="linear-gradient" y1="18.31" x2="51.91" y2="18.31" gradientUnits="userSpaceOnUse"><stop offset="0" stop-color="#64ffb0"/><stop offset="1" stop-color="#1fd6b5"/></linearGradient></defs><title>growcart-logo-dark</title><g id="Layer_2" data-name="Layer 2"><g id="Layer_1-2" data-name="Layer 1"><path class="cls-1" d="M10.86,26a5.56,5.56,0,0,1-5.53-3.47C4.54,20.76,2.18,13.17.16,7.38A2.48,2.48,0,0,1,2.38,4l32.23,0L32.68,9.85H7c.55,1.46,2.94,8.88,3.44,10.23h18.9L27.41,26ZM41.63,0a4.45,4.45,0,0,0-3.79,2.14,6.8,6.8,0,0,0-.62,1.19L36.81,4.6h0c-.45,1.71-2.89,9.14-5,15.46h-.06L29.81,26h0c-.72,2.15-1.47,4.32-1.47,4.32l-20.57.09s2,6.06,2,6.16l17.29,0c2.75,0,6.34-1.07,7.84-6.17.72-2.45,3.17-9.59,5.14-15.33,1.5-4.37,3-8.86,3-8.94l6.35,0S51.34,1.94,51.91,0Z"/><path class="cls-2" d="M91.5,32.65c3.75,0,4.77-2.58,4.56-5.87-.78,1.52-2.9,2.41-5,2.41a8.29,8.29,0,0,1-8.23-8.56A8.31,8.31,0,0,1,91.11,12c2,0,4.14.88,5,2.4V12.33h4.77V26.54c0,7.1-3.46,10.53-9.33,10.53a8.8,8.8,0,0,1-8.13-5.13l4-1.94A4.71,4.71,0,0,0,91.5,32.65Zm.46-16a4,4,0,1,0,0,7.92,4,4,0,0,0,4-4A3.83,3.83,0,0,0,92,16.64Z"/><path class="cls-2" d="M110.26,28.83h-4.91V12.33h4.91v4c.85-3.07,3-4.34,4.67-4.34a6,6,0,0,1,2.82.6L116.87,17a5.61,5.61,0,0,0-2.51-.49c-2.83,0-4.1,2.23-4.1,6.57Z"/><path class="cls-2" d="M119,20.53a8.57,8.57,0,0,1,17.14,0,8.57,8.57,0,1,1-17.14,0Zm12.3,0a3.73,3.73,0,1,0-7.46,0,3.73,3.73,0,1,0,7.46,0Z"/><path class="cls-2" d="M158,28.83h-4.1l-3.25-10.49-3.11,10.49h-4.1l-6-16.5h5.23l2.93,9.82,2.9-9.82h4.2l2.9,9.82,2.93-9.82h5.23Z"/><path class="cls-2" d="M174.14,12a8.68,8.68,0,0,1,7.18,3.5l-4,2.86a3.74,3.74,0,0,0-3.18-1.66,3.94,3.94,0,0,0-4.1,3.85,4,4,0,0,0,4.1,4,3.74,3.74,0,0,0,3.18-1.66l4,2.82a9,9,0,0,1-16.15-5.12C165.17,15.33,169.41,12,174.14,12Z"/><path class="cls-2" d="M196.72,27c-1.06,1.59-3.53,2.19-4.8,2.19a8.42,8.42,0,0,1-8.41-8.59A8.41,8.41,0,0,1,191.92,12c1.06,0,3.53.35,4.8,2.19V12.33h4.88v16.5h-4.88Zm-4-2.47a3.93,3.93,0,1,0,0-7.85,4.05,4.05,0,0,0-4.14,3.92A4.06,4.06,0,0,0,192.73,24.49Z"/><path class="cls-2" d="M211,28.83h-4.91V12.33H211v4c.85-3.07,3-4.34,4.66-4.34a6.08,6.08,0,0,1,2.83.6L217.64,17a5.61,5.61,0,0,0-2.51-.49c-2.83,0-4.1,2.23-4.1,6.57Z"/><path class="cls-2" d="M231,12.33v3.89h-3.47V28.83h-4.87V16.22h-3V12.33h3V6h4.87v6.33Z"/></g></g></svg>