<svg xmlns="http://www.w3.org/2000/svg" xmlns:xlink="http://www.w3.org/1999/xlink" viewBox="0 0 142.48 163.72"><defs><style>.cls-1{fill:#fff;}.cls-2{fill:url(#linear-gradient);}.cls-3{fill:url(#linear-gradient-2);}</style><linearGradient id="linear-gradient" x1="76.78" y1="81.38" x2="124.93" y2="121.78" gradientUnits="userSpaceOnUse"><stop offset="0" stop-color="#231f20" stop-opacity="0.1"/><stop offset="1" stop-color="#fff" stop-opacity="0"/></linearGradient><linearGradient id="linear-gradient-2" x1="32.16" y1="81.39" x2="124.31" y2="81.39" gradientUnits="userSpaceOnUse"><stop offset="0" stop-color="#64cfb0"/><stop offset="1" stop-color="#9effb5"/></linearGradient></defs><title>growcart-shield</title><g id="Layer_2" data-name="Layer 2"><g id="Layer_1-2" data-name="Layer 1"><path class="cls-1" d="M139.79,27.26C137.88,26.6,76.78,2,72.16.18A2.63,2.63,0,0,0,71.39,0h-.3a2.71,2.71,0,0,0-.77.17C65.71,2,4.6,26.6,2.69,27.26.18,28.15-.12,29.54,0,31.67c.33,4.52.63,9,1,13.55.37,4.16,7.94,52.7,9.5,59a68.45,68.45,0,0,0,5.94,15.67,31.63,31.63,0,0,0,7,8.75C26.1,130.92,39,141.53,43,144.48S66.34,161,69,162.82a4.63,4.63,0,0,0,2.1.88v0h.3v0a4.63,4.63,0,0,0,2.1-.88c2.66-1.85,22-15.33,26-18.34s16.88-13.56,19.45-15.85a31.77,31.77,0,0,0,7-8.75,68.45,68.45,0,0,0,5.94-15.67c1.56-6.29,9.13-54.83,9.5-59,.4-4.51.7-9,1-13.55C142.61,29.54,142.3,28.15,139.79,27.26Z"/><path class="cls-2" d="M49.56,113.82l32.25,43.05S114,136.4,125,121.64c1-1.34,3.19-4.1,5.85-11.82,3.59-10.41,7.26-34.36,7.26-34.36l-14.7-26.27s-3.54,10.49-7.45,10.43a61,61,0,0,0-7.29.06A4.17,4.17,0,0,0,104,63.25C103,67.35,96,91.11,92.37,102.81c-1.15,3.65-5.8,6.55-9.19,6.48Z"/><path class="cls-3" d="M51.44,95.09c-4.72,0-8-2.07-9.81-6.15C40.23,85.73,36,72.26,32.45,62c-1-3,.81-6.08,3.94-6.08l57.22-.08L90.18,66.36H44.61c1,2.58,5.22,15.75,6.1,18.16H84.26L80.83,95.06Zm54.63-46.21a7.91,7.91,0,0,0-6.74,3.8,12.89,12.89,0,0,0-1.09,2.11l-.74,2.26v0c-.81,3-5.14,16.22-8.87,27.44h-.1L85.09,95.05h0c-1.27,3.82-2.6,7.67-2.6,7.67L46,102.89s3.56,10.74,3.56,10.93l30.69.07c4.88,0,11.26-1.9,13.93-11,1.28-4.34,5.62-17,9.11-27.2C106,68,108.59,60,108.63,59.85l11.26-.06s3.41-7.47,4.42-10.91Z"/></g></g></svg>