<?xml version="1.0" encoding="UTF-8"?>
<svg width="94px" height="108px" viewBox="0 0 94 108" version="1.1" xmlns="http://www.w3.org/2000/svg" xmlns:xlink="http://www.w3.org/1999/xlink">
    <!-- Generator: Sketch 51.2 (57519) - http://www.bohemiancoding.com/sketch -->
    <title>Group 10</title>
    <desc>Created with Sketch.</desc>
    <defs>
        <polygon id="path-1" points="0 0.020644083 93.8668859 0.020644083 93.8668859 107.91 0 107.91"></polygon>
        <path d="M43.4182158,7.00274556 C39.0765612,6.93457988 38.6584604,7.04151479 38.6584604,7.04151479 C38.6584604,7.04151479 36.2260072,6.64508876 35.6038633,9.42454438 C34.9915252,12.1613964 30.4237122,28.0163077 28.0325683,35.8214911 C27.2864964,38.2577751 24.2410791,40.1941065 22.0283165,40.151929 L0.0548705036,43.1729467 L21.1355755,71.9026509 C21.1355755,71.9026509 42.182482,58.2382012 49.3271223,48.3908166 C49.9757626,47.496568 51.4134532,45.6528994 53.1513669,40.5040473 C55.4978633,33.5528521 57.8961007,17.5718343 57.8961007,17.5718343 L48.2908417,0.0423905325 C48.2908417,0.0423905325 45.9789784,7.04321893 43.4182158,7.00274556" id="path-3"></path>
        <linearGradient x1="47.3864495%" y1="40.4968945%" x2="85.1657107%" y2="67.409736%" id="linearGradient-5">
            <stop stop-color="#000000" stop-opacity="0.0969202899" offset="0%"></stop>
            <stop stop-color="#000000" stop-opacity="0.0068426162" offset="46.7276204%"></stop>
            <stop stop-color="#000000" stop-opacity="0" offset="96.7198787%"></stop>
            <stop stop-color="#000000" stop-opacity="0" offset="100%"></stop>
        </linearGradient>
        <path d="M48.8584759,0.0510098039 C47.0537172,0.0510098039 45.4773931,0.941995098 44.4206207,2.56018627 C44.1137276,3.03002451 43.8829793,3.50913725 43.7029241,3.95262745 L43.2172379,5.44181863 C43.2159759,5.44729902 43.2140828,5.45362255 43.2126103,5.45868137 C42.6802276,7.4605 39.8243759,16.1644167 37.3675483,23.5758039 L37.3050759,23.5758039 L35.0356655,30.5367451 L35.0524931,30.5367451 C34.2125862,33.0549853 33.3350276,35.599152 33.3350276,35.599152 C33.3350276,35.599152 9.99663793,35.7089706 9.27452414,35.7131863 C9.27452414,35.7131863 11.6219724,42.8081863 11.6242862,42.9310735 C11.6242862,42.9329706 31.8451552,42.9757598 31.8483103,42.9757598 C35.0651138,42.9757598 39.2688552,41.7205392 41.0269172,35.740799 C41.8689276,32.8766618 44.7302483,24.5064167 47.0293172,17.7807108 C48.7835931,12.6489559 50.519569,7.38398529 50.5477552,7.2912402 C50.6159069,7.28744608 57.9674586,7.25055882 57.9674586,7.25055882 C57.9674586,7.25055882 60.2139414,2.32010294 60.8822069,0.0510098039 L48.8584759,0.0510098039 Z M2.94651034,4.68678922 C0.884289655,4.68995098 -0.329189655,6.75310784 0.350224138,8.7047598 C2.71239655,15.487799 5.47464483,24.3826863 6.39826897,26.4991716 C7.57514828,29.1953137 9.75074483,30.5624608 12.8646897,30.5624608 L32.2284034,30.5401176 L34.4921345,23.5774902 C28.2080828,23.5810735 15.1551345,23.5844461 12.3792138,23.5821275 C11.8032897,21.989652 9.00444138,13.2941667 8.36457241,11.5889216 C8.36457241,11.5889216 36.4984034,11.5918725 38.3889828,11.5920833 L40.651031,4.63472549 L2.94651034,4.68678922 Z" id="path-6"></path>
        <linearGradient x1="71.8218316%" y1="0%" x2="9.50737847%" y2="76.6369048%" id="linearGradient-8">
            <stop stop-color="#9DFFB5" offset="0%"></stop>
            <stop stop-color="#63CEB0" offset="100%"></stop>
        </linearGradient>
    </defs>
    <g id="UX" stroke="none" stroke-width="1" fill="none" fill-rule="evenodd">
        <g id="Sign-In" transform="translate(-673.000000, -106.000000)">
            <g id="Logo" transform="translate(619.000000, 106.000000)">
                <g id="Group-10" transform="translate(54.000000, 0.000000)">
                    <g id="Group-3">
                        <mask id="mask-2" fill="white">
                            <use xlink:href="#path-1"></use>
                        </mask>
                        <g id="Clip-2"></g>
                        <path d="M92.0915477,17.9871456 C90.8375834,17.5462501 50.5805588,1.30484856 47.5412255,0.137190842 C47.3889749,0.0785029474 47.2144336,0.0433743509 47.0335834,0.0288601404 L47.0335834,0.0206564561 C47.0001472,0.0204461053 46.9669213,0.0229703158 46.933485,0.0242324211 C46.9000488,0.0229703158 46.8668228,0.0204461053 46.8331763,0.0206564561 L46.8331763,0.0288601404 C46.6523262,0.0433743509 46.4779951,0.0785029474 46.3257445,0.137190842 C43.2864112,1.30484856 3.02917629,17.5462501 1.77542237,17.9871456 C0.118961521,18.5693968 -0.0822868009,19.4869473 0.0230689038,20.8904084 C0.246397763,23.8660319 0.440706488,26.8446003 0.704831767,29.8168582 C0.948558837,32.5634096 5.93455436,64.5495744 6.96287651,68.6939073 C7.85282729,72.2806001 9.13938658,75.7446584 10.8774403,79.0189801 C12.0508631,81.2293472 13.6438161,83.1227154 15.5046796,84.7865908 C17.1943664,86.2969101 25.7170331,93.2868698 28.3145454,95.2328258 C30.9560085,97.2113861 43.701315,106.097869 45.4507244,107.317904 C45.9142054,107.641214 46.3713776,107.844202 46.8331763,107.89679 L46.8331763,107.910042 C46.8666125,107.909411 46.9000488,107.905625 46.933485,107.903311 C46.9669213,107.905625 47.0001472,107.909411 47.0335834,107.910042 L47.0335834,107.89679 C47.4955924,107.844202 47.9525544,107.641214 48.4162456,107.317904 C50.165655,106.097869 62.9109615,97.2113861 65.5524246,95.2328258 C68.1499369,93.2868698 76.6723933,86.2969101 78.3620801,84.7865908 C80.2231539,83.1227154 81.8161069,81.2293472 82.9895298,79.0189801 C84.7273732,75.7446584 86.0141427,72.2806001 86.9040935,68.6939073 C87.9324157,64.5495744 92.9182009,32.5634096 93.1621383,29.8168582 C93.4260532,26.8446003 93.6205723,23.8660319 93.8439011,20.8904084 C93.9490465,19.4869473 93.7480085,18.5693968 92.0915477,17.9871456" id="Fill-1" fill="#FEFEFE" mask="url(#mask-2)"></path>
                    </g>
                    <g id="Group-6" transform="translate(33.000000, 33.000000)">
                        <mask id="mask-4" fill="white">
                            <use xlink:href="#path-3"></use>
                        </mask>
                        <g id="Clip-5"></g>
                        <path d="M43.4182158,7.00274556 C39.0765612,6.93457988 38.6584604,7.04151479 38.6584604,7.04151479 C38.6584604,7.04151479 36.2260072,6.64508876 35.6038633,9.42454438 C34.9915252,12.1613964 30.4237122,28.0163077 28.0325683,35.8214911 C27.2864964,38.2577751 24.2410791,40.1941065 22.0283165,40.151929 L0.0548705036,43.1729467 L21.1355755,71.9026509 C21.1355755,71.9026509 42.182482,58.2382012 49.3271223,48.3908166 C49.9757626,47.496568 51.4134532,45.6528994 53.1513669,40.5040473 C55.4978633,33.5528521 57.8961007,17.5718343 57.8961007,17.5718343 L48.2908417,0.0423905325 C48.2908417,0.0423905325 45.9789784,7.04321893 43.4182158,7.00274556" id="Fill-4" fill="url(#linearGradient-5)" mask="url(#mask-4)"></path>
                    </g>
                    <g id="Group-9" transform="translate(21.000000, 33.000000)">
                        <mask id="mask-7" fill="white">
                            <use xlink:href="#path-6"></use>
                        </mask>
                        <g id="Clip-8"></g>
                        <path d="M48.8584759,0.0510098039 C47.0537172,0.0510098039 45.4773931,0.941995098 44.4206207,2.56018627 C44.1137276,3.03002451 43.8829793,3.50913725 43.7029241,3.95262745 L43.2172379,5.44181863 C43.2159759,5.44729902 43.2140828,5.45362255 43.2126103,5.45868137 C42.6802276,7.4605 39.8243759,16.1644167 37.3675483,23.5758039 L37.3050759,23.5758039 L35.0356655,30.5367451 L35.0524931,30.5367451 C34.2125862,33.0549853 33.3350276,35.599152 33.3350276,35.599152 C33.3350276,35.599152 9.99663793,35.7089706 9.27452414,35.7131863 C9.27452414,35.7131863 11.6219724,42.8081863 11.6242862,42.9310735 C11.6242862,42.9329706 31.8451552,42.9757598 31.8483103,42.9757598 C35.0651138,42.9757598 39.2688552,41.7205392 41.0269172,35.740799 C41.8689276,32.8766618 44.7302483,24.5064167 47.0293172,17.7807108 C48.7835931,12.6489559 50.519569,7.38398529 50.5477552,7.2912402 C50.6159069,7.28744608 57.9674586,7.25055882 57.9674586,7.25055882 C57.9674586,7.25055882 60.2139414,2.32010294 60.8822069,0.0510098039 L48.8584759,0.0510098039 Z M2.94651034,4.68678922 C0.884289655,4.68995098 -0.329189655,6.75310784 0.350224138,8.7047598 C2.71239655,15.487799 5.47464483,24.3826863 6.39826897,26.4991716 C7.57514828,29.1953137 9.75074483,30.5624608 12.8646897,30.5624608 L32.2284034,30.5401176 L34.4921345,23.5774902 C28.2080828,23.5810735 15.1551345,23.5844461 12.3792138,23.5821275 C11.8032897,21.989652 9.00444138,13.2941667 8.36457241,11.5889216 C8.36457241,11.5889216 36.4984034,11.5918725 38.3889828,11.5920833 L40.651031,4.63472549 L2.94651034,4.68678922 Z" id="Fill-7" fill="url(#linearGradient-8)" mask="url(#mask-7)"></path>
                    </g>
                </g>
            </g>
        </g>
    </g>
</svg>